<svg width="28" height="8" viewBox="0 0 28 8" fill="none" xmlns="http://www.w3.org/2000/svg">
<path d="M3.98563 0.984375C2.11258 0.984375 0.595001 2.50195 0.595001 4.375C0.595001 6.24805 2.11258 7.76562 3.98563 7.76562C5.85867 7.76562 7.37625 6.24805 7.37625 4.375C7.37625 2.50195 5.85867 0.984375 3.98563 0.984375ZM14 0.984375C12.127 0.984375 10.6094 2.50195 10.6094 4.375C10.6094 6.24805 12.127 7.76562 14 7.76562C15.873 7.76562 17.3906 6.24805 17.3906 4.375C17.3906 2.50195 15.873 0.984375 14 0.984375ZM24.0144 0.984375C22.1413 0.984375 20.6237 2.50195 20.6237 4.375C20.6237 6.24805 22.1413 7.76562 24.0144 7.76562C25.8874 7.76562 27.405 6.24805 27.405 4.375C27.405 2.50195 25.8874 0.984375 24.0144 0.984375Z" fill="#A86D06"/>
</svg>
