<svg width="12" height="6" viewBox="0 0 12 6" fill="none" xmlns="http://www.w3.org/2000/svg">
<path d="M7.97266 2.10938V0.941406C7.97266 0.670573 8.09961 0.484375 8.35352 0.382812C8.60742 0.28125 8.82747 0.323568 9.01367 0.509766L11.1973 2.69336C11.2819 2.77799 11.3327 2.87109 11.3496 2.97266C11.3835 3.07422 11.3835 3.17578 11.3496 3.27734C11.3327 3.37891 11.2819 3.47201 11.1973 3.55664L9.01367 5.74023C8.82747 5.92643 8.60742 5.96875 8.35352 5.86719C8.09961 5.76562 7.97266 5.57943 7.97266 5.30859V4.14062H0.304688C0.101562 4.14062 0 4.03906 0 3.83594V2.41406C0 2.21094 0.101562 2.10938 0.304688 2.10938H7.97266Z" fill="#7A7A7A"/>
</svg>
