<svg width="32" height="32" viewBox="0 0 32 32" fill="none" xmlns="http://www.w3.org/2000/svg">
<circle cx="16" cy="16" r="15.5" stroke="white" stroke-opacity="0.3"/>
<path d="M14.8242 11.3262C14.5703 11.5801 14.5957 11.9609 14.8242 12.2148L17.8965 15.1094H10.6094C10.2539 15.1094 10 15.3887 10 15.7188V16.5312C10 16.8867 10.2539 17.1406 10.6094 17.1406H17.8965L14.8242 20.0605C14.5957 20.3145 14.5957 20.6953 14.8242 20.9492L15.3828 21.5078C15.6367 21.7363 16.0176 21.7363 16.2461 21.5078L21.1973 16.5566C21.4258 16.3281 21.4258 15.9473 21.1973 15.6934L16.2461 10.7676C16.0176 10.5391 15.6367 10.5391 15.3828 10.7676L14.8242 11.3262Z" fill="white"/>
</svg>
