<svg width="136" height="100" viewBox="0 0 136 100" fill="none" xmlns="http://www.w3.org/2000/svg">
<path d="M106.1 52.144C105.7 51.6686 105.2 51.1933 104.8 50.7179C104.2 49.9574 103.6 49.1968 103.1 48.4363C102.1 47.0102 101 45.7743 99.4 44.9187C98.8 44.6335 98.2 44.4434 97.5 44.4434C97.1 44.4434 96.8 44.6335 96.7 45.0138C96.6 45.2039 96.6 45.4891 96.6 45.6793C96.6 47.1053 96.6 48.5313 96.6 49.9574C96.6 50.6229 96.8 51.1933 97.6 51.4785C97.7 51.5736 97.8 51.7637 97.9 51.8588C97.8 51.9538 97.6 52.0489 97.5 52.0489C94.3 52.0489 91.1 52.0489 87.9 52.0489C84.5 52.0489 81.1 52.0489 77.7 52.0489C77.3 52.0489 77 52.144 76.6 52.0489C76.5 52.0489 76.3 51.8588 76.3 51.7637C76.3 51.6686 76.4 51.4785 76.5 51.3834C76.5 51.2884 76.7 51.2884 76.7 51.2884C77.5 51.1933 77.7 50.9081 77.8 50.1475C77.8 49.482 77.8 48.8166 77.8 48.1511C77.8 47.2954 77.8 46.4398 77.8 45.5842C77.8 45.1088 77.6 44.9187 77.1 44.8236C76.9 44.8236 76.8 44.7286 76.6 44.7286C75.1 44.7286 73.5 44.7286 72 44.7286C71.4 44.7286 71.1 45.0138 71.1 45.5842C71.1 47.0102 71.1 48.4363 71.1 49.9574C71.1 50.3377 71.2 50.6229 71.4 50.9081C71.5 51.0982 71.8 51.1933 72 51.3834C72.1 51.4785 72.3 51.4785 72.4 51.4785C72.5 51.5736 72.5 51.6686 72.5 51.7637C72.5 51.8588 72.4 51.8588 72.3 51.9538C72.2 51.9538 72.2 51.9538 72.1 51.9538C69.9 51.9538 67.8 51.9538 65.6 51.9538C65.4 51.9538 65.3 51.8588 65.1 51.7637C65.2 51.6686 65.3 51.4785 65.5 51.3834C66.3 51.0982 66.7 50.5278 66.7 49.6722C66.7 45.8694 66.7 42.0666 66.7 38.2638C66.7 37.5983 66.4 37.123 65.8 36.8378C65.7 36.7427 65.7 36.6476 65.6 36.4575C65.7 36.3624 65.8 36.2674 65.9 36.2674C68 36.2674 70.2 36.2674 72.3 36.2674C72.4 36.2674 72.5 36.3624 72.7 36.4575C72.6 36.5526 72.5 36.7427 72.4 36.7427C71.3 37.0279 71.2 37.7885 71.2 38.6441C71.2 40.0702 71.2 41.4011 71.2 42.8272C71.2 43.4927 71.3 43.5877 72 43.5877C73.7 43.5877 75.4 43.5877 77.1 43.5877C77.5 43.5877 77.7 43.3976 77.7 43.0173C77.7 41.4011 77.7 39.7849 77.7 38.1688C77.7 37.3131 77.3 36.8378 76.4 36.6476C76.3 36.6476 76.3 36.6476 76.2 36.6476C76.1 36.5526 75.9 36.4575 75.8 36.3624C76 36.2674 76.1 36.2674 76.3 36.1723C76.5 36.1723 76.6 36.1723 76.8 36.1723C85.2 36.1723 93.6 36.1723 102 36.1723C102.6 36.1723 103.2 36.2674 103.8 36.4575C106.2 37.0279 107.2 38.7392 106.6 41.0208C106.1 42.637 105 43.6828 103.3 44.0631C103.1 44.0631 103 44.1581 102.8 44.2532C102.9 44.4434 103 44.6335 103.2 44.7286C105.5 46.3447 107.7 48.1511 109.6 50.2426C110.1 51.1933 110.9 51.0982 111.8 51.0032C114.9 50.5278 117.9 50.3377 121 50.4327C123.9 50.5278 126.8 50.7179 129.7 51.2884C131 51.5736 132.3 51.9538 133.4 52.6193C133.8 52.9045 134.3 53.1898 134.6 53.57C135.6 54.6158 135.5 55.9468 134.3 56.8975C133.4 57.658 132.4 58.0383 131.3 58.3235C129 58.8939 126.6 58.989 124.3 58.7989C121.7 58.5136 119.1 58.1334 116.6 57.4679C113.1 56.5172 110 54.901 107.2 52.7144C107 52.5243 106.7 52.5243 106.5 52.6193C103.5 53.1898 100.5 53.7602 97.5 54.4257C89.2 56.327 81.1 58.7989 73.2 61.746C67.9 63.7425 62.7 65.6439 57.3 67.3551C52 69.3516 46.6 70.8727 41.1 71.9184C36.6 72.8691 32.1 73.4396 27.4 73.3445C22 73.2494 16.8 72.3938 11.9 70.1121C7.90001 68.3058 4.60001 65.6439 2.60001 61.8411C1.40001 59.7495 0.800006 57.4679 0.500005 55.0911C0.100005 51.9538 0.400005 48.9116 1.60001 45.9645C3.10001 42.1617 5.50001 39.0244 9.20001 36.8378C11.4 35.5068 13.9 34.8413 16.5 35.0315C16.9 35.0315 17.4 35.1265 17.8 35.2216C17.9 35.2216 18.1 35.4117 18 35.5068C18 35.6019 17.8 35.697 17.7 35.792C17.6 35.792 17.5 35.792 17.4 35.792C15.7 35.3167 14 35.697 12.4 36.1723C8.90001 37.2181 6.50001 39.4997 5.00001 42.637C3.80001 44.7286 3.30001 47.0102 3.00001 49.387C2.40001 55.1862 4.50001 60.0348 8.60001 64.2178C11.1 66.7847 14.3 68.3058 17.8 69.2565C20.5 70.0171 23.2 70.3973 26 70.4924C29.6 70.6825 33.1 70.3973 36.6 69.922C48.5 68.4009 59.9 65.2636 71.2 61.3657C75.8 59.7495 80.5 58.5136 85.1 57.1827C91 55.4714 97.1 54.0454 103.1 52.8095C104.2 52.5243 105.1 52.4292 106.1 52.144C106.1 52.2391 106.1 52.144 106.1 52.144ZM111.2 52.2391C111.3 52.4292 111.3 52.4292 111.3 52.4292C111.4 52.5243 111.5 52.6193 111.5 52.7144C113.5 54.6158 115.8 55.9468 118.4 56.8975C120.8 57.7531 123.3 58.2284 125.8 58.3235C127.8 58.3235 129.9 58.3235 131.9 57.7531C132.7 57.5629 133.4 57.2777 134 56.7073C134.8 55.9468 134.8 55.1862 134 54.4257C133.7 54.1404 133.4 53.8552 133 53.7602C131.9 53.3799 130.8 52.9045 129.7 52.6193C126.4 51.8588 123 51.4785 119.5 51.6686C116.8 51.8588 114 52.0489 111.2 52.2391ZM92.4 44.0631C92.4 42.2568 92.4 40.4504 92.4 38.549C92.4 37.6934 91.9 37.123 91.1 37.123C90.3 37.123 89.8 37.6934 89.8 38.549C89.8 42.1617 89.8 45.7743 89.8 49.482C89.8 50.4327 90.5 51.0031 91.2 50.9081C92 50.9081 92.5 50.3377 92.5 49.387C92.4 47.6757 92.4 45.8694 92.4 44.0631ZM85.1 44.0631C85.1 42.2568 85.1 40.3554 85.1 38.549C85.1 38.3589 85.1 38.1688 85 37.9786C84.8 37.4082 84.2 37.0279 83.5 37.123C82.8 37.2181 82.4 37.7885 82.4 38.549C82.4 42.2568 82.4 45.8694 82.4 49.5771C82.4 49.7672 82.4 49.9574 82.5 50.1475C82.7 50.7179 83.3 51.0982 84 51.0032C84.6 50.9081 85.1 50.4327 85.1 49.7672C85.2 47.8659 85.1 45.9645 85.1 44.0631ZM96.7 41.211C96.7 41.211 96.8 41.211 96.7 41.211C96.7 41.6863 96.7 42.1617 96.7 42.542C96.7 43.2074 97 43.4927 97.7 43.4927C98.1 43.4927 98.5 43.4927 99 43.4927C99.6 43.4927 100.1 43.4927 100.7 43.3976C102.6 42.9222 103.3 41.1159 102.9 39.3096C102.6 38.1688 101.2 37.2181 99.8 37.2181C99.2 37.2181 98.5 37.2181 97.9 37.2181C97.1 37.2181 96.8 37.4082 96.8 38.1688C96.7 39.1195 96.7 40.1652 96.7 41.211Z" fill="#A76F29"/>
<path d="M51.5 44.5384C51.5 42.637 51.5 40.7356 51.5 38.8342C51.5 38.1688 51.3 37.5983 50.7 37.123C50.6 37.0279 50.5 36.8378 50.5 36.7427C50.6 36.6476 50.8 36.5526 50.9 36.5526C51.1 36.5526 51.2 36.5526 51.4 36.5526C54.8 36.5526 58.1 36.5526 61.5 36.5526C64.3 36.5526 66 38.454 66.1 40.7356C66.3 43.4926 64.4 45.1088 61.9 45.2039C60.1 45.2039 58.4 45.299 56.6 45.394C55.9 45.394 55.8 45.5842 55.8 46.1546C55.8 47.4856 55.8 48.8165 55.9 50.1475C55.9 50.7179 56 51.3834 56.6 51.8588C56.8 51.9538 56.7 52.144 56.5 52.239C56.4 52.239 56.3 52.239 56.1 52.239C52 52.239 48 52.239 43.9 52.239C43.7 52.144 43.5 52.0489 43.4 52.0489C43.6 51.9538 43.7 51.7637 43.9 51.7637C45.2 51.4785 45.4 51.1933 44.9 49.9574C44.4 48.8165 44 47.5806 43.6 46.4398C43.3 45.5842 43.2 45.5842 42.6 45.5842C41.6 45.5842 40.6 45.5842 39.7 45.5842C39.1 45.5842 38.9 45.6792 38.7 46.2497C38.2 47.4856 37.8 48.6264 37.4 49.8623C37.3 50.0524 37.2 50.3377 37.2 50.5278C37.1 51.0031 37.2 51.2883 37.6 51.5736C37.7 51.6686 37.8 51.7637 37.8 51.8588C37.7 51.9538 37.6 52.0489 37.4 52.0489C36 52.0489 34.5 52.0489 33.1 52.0489C33 52.0489 32.9 51.9538 32.8 51.8588C32.9 51.7637 32.9 51.5736 33.1 51.5736C33.3 51.4785 33.5 51.4785 33.7 51.4785C34.4 51.2883 34.9 50.9081 35.2 50.3377C37.4 45.2039 39.6 39.9751 41.8 34.8413C41.8 34.7462 41.9 34.6512 41.9 34.5561C42 34.461 42.1 34.366 42.2 34.366C42.3 34.366 42.4 34.461 42.4 34.5561C44.2 38.549 46.1 42.4469 47.9 46.4398C48.5 47.7708 49.1 49.1017 49.8 50.4327C50 50.813 50.2 51.0982 50.5 51.4785C50.8 51.8588 51.3 51.7637 51.5 51.3834C51.6 51.0982 51.7 50.813 51.7 50.6229C51.6 48.4363 51.5 46.5349 51.5 44.5384ZM55.6 40.9258C55.6 41.6863 55.6 42.4469 55.6 43.3025C55.6 43.7779 55.8 44.0631 56.3 44.0631C57 44.1581 57.6 44.1581 58.3 44.1581C58.7 44.1581 59.2 44.0631 59.6 43.968C61.4 43.5877 62.6 42.7321 62.6 40.5455C62.6 38.8342 61.7 37.8835 60 37.8835C58.8 37.8835 57.6 37.8835 56.4 37.8835C55.9 37.8835 55.6 38.0737 55.6 38.6441C55.6 39.3096 55.6 40.0701 55.6 40.9258ZM41 44.3483C41.4 44.3483 41.8 44.3483 42.1 44.3483C42.5 44.3483 42.6 44.1581 42.4 43.8729C42.3 43.5877 42.2 43.3976 42.1 43.1124C41.9 42.637 41.6 42.0666 41.4 41.5913C41.3 41.4011 41.1 41.306 40.9 41.211C40.8 41.211 40.6 41.4011 40.5 41.5913C40.3 42.0666 40.1 42.4469 39.9 42.9222C39.8 43.2074 39.6 43.4926 39.5 43.8729C39.4 44.1581 39.5 44.3483 39.9 44.3483C40.3 44.3483 40.7 44.3483 41 44.3483Z" fill="#A76F29"/>
<path d="M31.4 29.2322C31.4 30.1829 31.4 31.1336 31.4 32.0843C31.4 32.1793 31.3 32.3695 31.2 32.4645C31.1 32.3695 31 32.2744 30.9 32.1793C29.9 30.4681 28.6 29.1371 26.5 28.5667C26.1 28.4716 25.5 28.4716 25.1 28.5667C23.7 28.8519 23.1 29.8977 23.4 31.2286C23.7 32.4645 24.5 33.4152 25.5 34.1758C28.1 36.2673 30.3 38.6441 31.8 41.4962C32.7 43.2074 33.3 44.9187 33.2 46.82C33.2 48.2461 32.8 49.5771 32.1 50.813C30.8 52.9996 28.6 53.6651 26.1 53.57C24.7 53.4749 23.4 53.1897 22.1 52.7144C21.1 52.3341 19.6 52.6193 19.1 53.57C19.1 53.6651 19 53.7601 18.9 53.7601C18.8 53.8552 18.5 53.9503 18.5 53.8552C18.4 53.7601 18.3 53.57 18.3 53.3798C18.3 52.8094 18.4 52.1439 18.4 51.5735C18.3 49.6721 18.1 47.6757 17.9 45.7743C17.9 45.6792 17.9 45.5841 17.9 45.4891C18 45.394 18.1 45.2039 18.1 45.1088C18.2 45.2039 18.3 45.2989 18.4 45.394C19 47.6757 20.5 49.3869 22.7 50.6228C23.7 51.0982 24.6 51.4785 25.8 51.5735C27.2 51.6686 28.3 51.1932 29.1 50.0524C29.9 48.9116 29.9 47.7707 29.2 46.6299C28.8 46.0595 28.4 45.394 27.9 44.9187C25.2 42.1616 22.8 39.1194 20.6 36.0772C19.2 33.9857 19.2 31.7991 20.5 29.7075C21.9 27.4259 24.8 26.285 27.9 27.5209C28.3 27.7111 28.6 27.9012 29 28.0913C29.7 28.4716 30.3 28.3766 30.8 27.8061C30.9 27.7111 31.1 27.7111 31.2 27.616C31.2 27.7111 31.3 27.9012 31.3 27.9963C31.3 28.4716 31.3 28.8519 31.3 29.3273C31.4 29.2322 31.4 29.2322 31.4 29.2322Z" fill="#A76F29"/>
<path d="M74.1 18.6794C74.2 18.3942 74.2 18.2992 74.3 18.109C73.9 18.3942 73.6 18.7745 73 18.4893C73.4 18.2041 73.7 17.7287 74.1 17.5386C75 16.9682 75.5 16.3027 75.4 15.352C75.3 14.7816 75.3 14.2112 75.4 13.6407C75.5 12.9753 75.2 12.4048 74.7 12.0246C73.9 11.4541 73.2 10.6936 72.6 9.93303C72.1 9.26755 71.4 8.88727 70.7 8.50699C70.4 8.31685 70.1 8.12671 69.9 7.93657C69.8 7.8415 69.7 7.74643 69.5 7.74643C69.2 7.65136 69 7.74643 69 8.12671C69 8.31685 68.9 8.50699 68.8 8.7922C68.9 8.98234 68.9 9.45769 69.3 9.74289C69.5 9.83796 69.3 10.2182 68.9 10.5035C68.4 9.83796 68.2 9.07741 68.1 8.22178C68 7.8415 68.1 7.55629 68.4 7.27109C68.6 7.08095 68.8 6.79574 69 6.6056C69.3 6.22532 69.6 6.13025 70.1 6.51053C70.3 6.70067 70.5 6.89081 70.6 7.08095C71.1 6.6056 71.6 6.22532 72 5.84504C72.1 5.74997 72.1 5.74997 72.1 5.6549C72.4 5.08449 72.7 4.60914 72.9 4.03872C73 3.94365 73 3.75351 72.9 3.65844C72.9 3.56337 72.6 3.56337 72.5 3.56337C72 3.65844 71.5 3.75351 71.1 3.84858C70.9 3.84858 70.6 3.75351 70.4 3.56337C70.3 3.37323 70.1 2.99296 70.5 2.80282C71.3 2.32747 72.1 1.85212 72.8 1.2817C73 0.996495 73 0.901425 73 0.806356C73.1 0.616217 73.1 0.426078 73.2 0.140869C73.5 0.616217 73.6 0.996495 73.9 1.2817C74.2 1.56691 74.7 1.66198 75.1 1.94719C75 2.04226 75 2.13733 74.9 2.13733C75.3 2.61268 75.7 3.08803 76.1 3.65844C76 3.65844 76 3.75351 75.9 3.75351C75.8 3.65844 75.6 3.65844 75.5 3.56337L75.4 3.65844C75.5 3.84858 75.7 4.03872 75.9 4.22886C75.3 4.419 75.8 4.60914 75.8 4.89435C75.7 4.89435 75.6 4.89435 75.5 4.98942C75.6 5.08449 75.6 5.17956 75.7 5.36969C75.5 5.36969 75.4 5.27462 75.3 5.27462C75.3 5.36969 75.3 5.36969 75.3 5.36969C75.4 6.03518 75.6 6.70067 75.7 7.36616C75.8 8.22178 76.5 8.7922 77.1 9.36262C77.5 9.74289 77.9 10.0281 78.3 10.5035C78.6 10.8837 78.8 11.3591 79 11.7394C79.1 12.2147 79.4 12.3098 79.8 12.4048C80 12.4048 80.2 12.4048 80.5 12.4999C81.5 12.6901 82 13.5457 81.7 14.5914C81.6 14.9717 81.4 15.2569 81.3 15.6372C81 16.2076 80.8 16.683 80.5 17.2534C80.5 17.3485 80.4 17.4435 80.3 17.4435C80.3 17.1583 80.3 16.778 80.3 16.4928C80 16.683 79.8 16.778 79.5 16.9682C79.6 16.778 79.6 16.4928 79.7 16.3978C79.9 15.9224 80.1 15.352 80.4 14.8767C80.8 14.021 80.6 13.2605 79.7 12.8802C79.6 12.8802 79.3 12.9753 79.2 13.0703C78.9 13.926 78.2 14.4013 77.3 14.6865C76.8 14.8766 77 15.2569 76.9 15.5421C76.9 15.8273 76.9 16.0175 77 16.3027C77.1 16.683 77 16.8731 76.6 16.9682C76.2 17.1583 75.9 17.4435 75.6 17.7287C75.4 18.0139 75 18.109 75 18.5844C74.8 18.5844 74.4 18.6794 74.1 18.6794ZM70.2 7.27109C69.8 6.6056 69.6 6.6056 69.2 6.98588C69.5 7.08095 69.8 7.17602 70.2 7.27109Z" fill="#A76F29"/>
<path d="M61.1 18.5839C60.9 18.5839 60.6 18.679 60.4 18.5839C60.2 18.4889 60.1 18.2987 60 18.2036L59.9 18.2987C59.9 18.3938 60 18.4889 60 18.5839C59.5 18.7741 59.5 18.679 59.2 18.2987C58.8 17.8234 58.3 17.4431 57.8 17.0628C57.5 16.8727 57.3 16.6825 57.4 16.3023C57.5 15.922 57.5 15.4466 57.4 15.0663C57.4 14.9713 57.2 14.7811 57.1 14.7811C56.2 14.4959 55.6 14.0206 55.2 13.165C55.1 12.8797 54.9 12.7847 54.6 12.9748C53.7 13.6403 53.6 14.0206 54.1 15.0663C54.4 15.6368 54.6 16.3023 54.9 16.8727C54.9 16.8727 54.8 16.8727 54.8 16.9677C54.6 16.8727 54.3 16.6825 54.1 16.5875C54.1 16.9677 54.1 17.2529 54.1 17.5382H54C54 17.4431 53.9 17.348 53.9 17.2529C53.6 16.6825 53.4 16.2072 53.1 15.6368C52.9 15.1614 52.7 14.591 52.6 14.1157C52.5 13.26 53.2 12.5945 54.1 12.4995C54.3 12.4995 54.5 12.4995 54.6 12.4995C55 12.4044 55.3 12.3093 55.3 11.9291C55.4 11.1685 55.9 10.5981 56.4 10.1227C56.6 9.93259 56.8 9.83752 57 9.64738C57.9 8.88683 58.6 8.12627 58.6 6.89037C58.6 6.41502 58.8 5.93967 58.9 5.36925C58.8 5.36925 58.7 5.36925 58.5 5.46432C58.6 5.36925 58.6 5.17911 58.7 5.08404C58.6 5.08404 58.5 5.08404 58.4 5.08404C58.3 4.8939 58.9 4.51363 58.3 4.41856C58.5 4.22842 58.6 4.03828 58.8 3.84814L58.7 3.75307C58.6 3.84814 58.4 3.84814 58.3 3.94321C58.3 3.94321 58.2 3.94321 58.2 3.84814C58.6 3.37279 59 2.89744 59.4 2.32703C59.3 2.23196 59.2 2.23196 59.1 2.13689C59.6 1.94675 60 1.75661 60.3 1.4714C60.6 1.18619 60.8 0.805914 61 0.330566C61.1 0.425636 61.2 0.615775 61.2 0.710845C61.2 1.09112 61.4 1.18619 61.7 1.37633C62.4 1.75661 63.1 2.32703 63.7 2.70731C64 2.80237 63.8 3.18265 63.7 3.37279C63.6 3.56293 63.2 3.658 63 3.56293C62.5 3.46786 62 3.37279 61.5 3.27772C61.2 3.18265 61.1 3.46786 61.2 3.658C61.7 4.41856 61.8 5.36925 62.6 6.03474C62.9 6.31995 63.2 6.60516 63.6 7.0805C63.7 6.89037 63.7 6.70023 63.9 6.60516C64.4 6.12981 64.8 5.8446 65.3 6.70023C65.4 6.7953 65.4 6.98544 65.6 7.0805C66.6 7.84106 66.1 8.69669 65.8 9.45724C65.7 9.74245 65.6 10.1227 65.4 10.503C64.8 10.1227 64.8 9.93259 65.2 9.45724C65.4 9.2671 65.4 8.88683 65.4 8.60162C65.4 8.50655 65.3 8.31641 65.3 8.12627C65.3 7.65092 65 7.55585 64.6 7.74599C64.1 8.0312 63.6 8.50655 63 8.79176C62 9.26711 61.6 10.1227 61 10.7882C60.6 11.2636 60.1 11.6438 59.6 12.0241C59.1 12.4044 58.8 12.8797 58.8 13.5452C58.9 14.2107 58.8 14.8762 58.8 15.5417C58.8 16.3973 59.2 17.0628 60 17.5382C60.4 17.8234 60.8 18.2036 61.2 18.4889L61.1 18.5839ZM64 7.27064C64.4 7.17557 64.7 7.0805 65 6.98543C64.6 6.60516 64.4 6.60516 64 7.27064Z" fill="#A76F29"/>
<path d="M56.7 19.8203C56.5 19.345 56.4 18.9647 56.3 18.4894C56.2 18.1091 56.3 17.7288 56.7 17.6337C57 17.5387 57.3 17.5387 57.6 17.6337C58 17.8239 58.1 18.2041 58 18.5844C57.9 18.9647 57.7 19.345 57.6 19.7253C57.7 19.8203 57.7 19.9154 57.8 20.0105C58.3 20.4858 58.7 20.676 59.5 20.4858C62.1 19.7253 64.4 20.3907 66.3 22.1971C66.4 22.2921 66.5 22.3872 66.5 22.3872C66.6 22.4823 66.6 22.5773 66.8 22.6724C67 22.4823 67.2 22.1971 67.3 22.102C69.4 20.2006 71.8 19.7253 74.6 20.5809C74.8 20.676 75 20.5809 75.1 20.4858C75.4 20.2957 75.7 20.0105 76 19.7253C75.8 19.345 75.6 18.9647 75.6 18.6795C75.6 18.3943 75.6 18.1091 75.8 17.8239C76 17.4436 76.4 17.4436 76.8 17.5387C77.1 17.6337 77.4 18.1091 77.3 18.4894C77.2 18.8696 77 19.2499 76.9 19.7253C77.2 19.9154 77.5 20.2957 77.9 20.5809C78 20.676 78.1 20.676 78.2 20.5809C79.2 20.2006 80.3 20.1055 81.3 20.4858C81.4 20.4858 81.6 20.4858 81.7 20.3907C82 20.2957 82.3 20.1055 82.6 20.1055C83.2 20.0105 83.7 20.3907 83.7 20.9612C83.7 21.5316 83.3 21.9119 82.7 21.9119C82.4 21.9119 82.1 21.7217 81.7 21.6266C81.6 21.6266 81.4 21.5316 81.2 21.5316C80.2 21.9119 79.2 21.9119 78.2 21.4365C78.1 21.3414 77.9 21.4365 77.7 21.4365C77.4 21.7217 77.1 22.0069 76.8 22.1971C76.9 22.5773 77.1 22.9576 77.2 23.3379C77.3 23.9083 77 24.3837 76.4 24.4787C75.9 24.4787 75.4 24.0985 75.5 23.528C75.5 23.2428 75.7 22.8626 75.8 22.5773C75.9 22.3872 75.9 22.2921 75.8 22.102L75.7 22.0069C75.2 21.5316 74.8 21.2464 74 21.5316C72.6 22.0069 71.1 21.9119 69.6 21.4365C69.3 21.3414 69.1 21.3414 68.9 21.5316C68.4 21.9119 67.9 22.2921 67.3 22.7675C67 22.9576 67 23.1478 67.2 23.433C67.7 24.2886 68 25.2393 67.7 26.2851C67.6 26.5703 67.5 26.7604 67.3 26.9505C66.9 27.521 66.3 27.521 65.9 26.9505C65.4 26.19 65.3 25.4294 65.5 24.5738C65.6 24.1935 65.8 23.7182 66 23.3379C66.2 23.0527 66.1 22.9576 65.9 22.7675C65.6 22.5773 65.4 22.2921 65.1 22.102C64.5 21.6266 63.9 21.3414 63 21.6266C61.6 22.102 60.1 22.0069 58.8 21.5316C58.5 21.4365 58.3 21.4365 58.1 21.6266C58 21.7217 57.8 21.8168 57.7 21.9119C57.2 22.3872 57.2 22.2921 57.5 22.9576C57.6 23.2428 57.7 23.6231 57.7 24.0034C57.7 24.4787 57.2 24.6689 56.8 24.6689C56.4 24.5738 56 24.2886 56.1 23.8132C56.1 23.3379 56.3 22.8626 56.4 22.2921C56.2 22.102 55.8 21.8168 55.5 21.5316C55.4 21.4365 55.3 21.4365 55.2 21.5316C54.2 22.0069 53.1 22.0069 52.1 21.6266C52 21.6266 51.8 21.6266 51.7 21.7217C51.3 21.8168 51 22.0069 50.6 22.0069C50 22.102 49.7 21.6266 49.6 21.1513C49.6 20.5809 50 20.2006 50.6 20.2957C50.9 20.2957 51.3 20.4858 51.6 20.5809C51.8 20.5809 52 20.676 52.1 20.5809C53.1 20.2006 54.1 20.2957 55.1 20.676C55.2 20.771 55.4 20.771 55.5 20.676C56.1 20.2957 56.4 20.0105 56.7 19.8203ZM66.9 23.6231C66 24.6689 66.1 26.2851 66.9 26.8555C67.7 25.9998 67.7 24.7639 66.9 23.6231ZM58.2 21.0562C57.8 20.771 57.5 20.4858 57.1 20.2006C56.8 20.4858 56.5 20.8661 56.2 21.1513C56.5 21.4365 56.8 21.7217 57.1 22.0069C57.5 21.6266 57.8 21.3414 58.2 21.0562ZM70.3 21.0562C71.2 21.5316 73.6 21.4365 74.1 21.0562C72.9 20.5809 71.5 20.5809 70.3 21.0562ZM59.6 21.0562C60.3 21.5316 62.8 21.5316 63.3 21.0562C62.2 20.5809 60.7 20.5809 59.6 21.0562ZM76.6 21.9119C76.9 21.6266 77.3 21.3414 77.6 21.0562C77.2 20.771 76.9 20.4858 76.6 20.2006C76.3 20.4858 75.9 20.771 75.6 21.0562C75.9 21.3414 76.3 21.6266 76.6 21.9119ZM54.8 21.0562C54.1 20.771 53.4 20.771 52.8 21.0562C53.4 21.3414 54.1 21.3414 54.8 21.0562ZM78.9 21.0562C79.6 21.3414 80.4 21.3414 81 21.0562C80.4 20.771 79.4 20.771 78.9 21.0562ZM51.6 21.1513C51.6 21.0562 51.6 21.0562 51.6 20.9612C51.3 20.8661 51.1 20.771 50.8 20.771C50.7 20.771 50.5 20.9612 50.5 21.0562C50.5 21.1513 50.7 21.3414 50.8 21.3414C51.1 21.3414 51.3 21.2464 51.6 21.1513ZM82.1 20.9612C82.1 21.0562 82.1 21.0562 82.1 21.1513C82.3 21.2464 82.6 21.3414 82.8 21.4365C83 21.5316 83.2 21.3414 83.2 21.1513C83.2 20.8661 83 20.771 82.7 20.771C82.6 20.771 82.4 20.8661 82.1 20.9612ZM76.7 22.9576C76.6 22.9576 76.6 22.9576 76.5 22.9576C76.4 23.2428 76.3 23.433 76.3 23.7182C76.3 23.8132 76.5 23.9083 76.6 24.0034C76.7 23.9083 76.8 23.7182 76.8 23.6231C76.8 23.433 76.7 23.2428 76.7 22.9576ZM57.2 22.9576C57.1 22.9576 57.1 22.9576 57 22.9576C56.9 23.1478 56.8 23.433 56.8 23.6231C56.8 23.7182 57 23.9083 57.1 24.0034C57.2 23.9083 57.4 23.7182 57.4 23.6231C57.4 23.433 57.3 23.1478 57.2 22.9576ZM57.1 19.1548C57.2 19.1548 57.2 19.1548 57.3 19.1548C57.4 18.8696 57.4 18.5844 57.4 18.2992C57.4 18.2041 57.2 18.1091 57.1 18.014C57 18.1091 56.9 18.2041 56.9 18.2992C56.9 18.6795 57 18.8696 57.1 19.1548ZM76.5 19.1548C76.6 19.1548 76.6 19.1548 76.7 19.1548C76.8 18.9647 76.9 18.6795 76.9 18.4894C76.9 18.3943 76.8 18.2041 76.7 18.1091C76.6 18.2041 76.4 18.2992 76.4 18.3943C76.3 18.6795 76.4 18.8696 76.5 19.1548Z" fill="#A76F29"/>
<path d="M71.8 10.5986C71.8 12.7852 72 14.9718 71 17.0634C70.2 18.6795 69.2 20.0105 67.4 20.8661C67.1 20.9612 66.9 20.9612 66.6 20.8661C64.6 19.9154 63.5 18.2042 62.8 16.2077C62.5 15.257 62.3 14.2113 62.3 13.2606C62.3 12.405 62.3 11.4543 62.3 10.5986C65.5 10.5986 68.6 10.5986 71.8 10.5986ZM71.6 10.7888C68.6 10.7888 65.6 10.7888 62.6 10.7888C62.6 11.8345 62.6 12.7852 62.6 13.831C65.6 13.831 68.6 13.831 71.6 13.831C71.6 12.7852 71.6 11.8345 71.6 10.7888ZM65.2 16.1127C66.2 16.0176 66.3 16.6831 66.5 17.3486C66.8 17.3486 67 17.3486 67.3 17.3486C67.4 17.3486 67.5 17.2535 67.6 17.1584C67.7 16.8732 67.8 16.588 68 16.3979C68.2 16.2077 68.6 16.2077 68.9 16.1127C68.9 15.8275 68.7 15.6373 68.4 15.5422C67.8 15.3521 67.4 15.5422 67.1 16.0176C66.6 15.5422 66.3 15.4472 65.9 15.5422C65.5 15.4472 65.3 15.7324 65.2 16.1127ZM66.3 18.6795C66.8 18.6795 67.3 18.6795 67.9 18.6795C67.8 17.919 67.8 17.7288 67.3 17.7288C66.4 17.7288 66.4 17.7288 66.3 18.6795ZM66.4 17.4436C66.4 17.5387 66.4 17.5387 66.4 17.4436C66.8 17.5387 67.2 17.5387 67.6 17.5387C67.6 17.5387 67.6 17.5387 67.6 17.4436C67.3 17.4436 66.9 17.4436 66.4 17.4436Z" fill="#A76F29"/>
<path d="M90.4 31.5138C90.4 33.13 89 34.3659 87.3 34.3659C85.6 34.3659 84.2 33.0349 84.3 31.4187C84.3 29.7075 85.8 28.4716 87.6 28.5667C89.1 28.6617 90.4 29.8976 90.4 31.5138Z" fill="#A76F29"/>
<path d="M66.8 92.9287C67.6 92.9287 68.4 92.9287 69.2 92.9287C70.1 92.9287 70.7 93.4991 70.8 94.1646C70.9 94.8301 70.5 95.4956 69.7 95.8759C69.6 95.8759 69.5 95.9709 69.3 96.066C70.1 96.9216 70.7 97.8723 71.7 98.6329C71.7 98.4427 71.8 98.2526 71.8 98.0625C71.8 96.6364 71.8 95.2104 71.8 93.7843C71.8 93.4991 71.7 93.2139 71.6 92.9287C72.1 92.9287 72.6 92.9287 73 92.9287C72.9 93.309 72.8 93.6893 72.8 93.9745C72.8 95.2104 72.8 96.5413 72.8 97.7773C72.8 98.0625 72.9 98.4427 73 98.823C72.3 98.823 71.5 98.7279 70.7 98.7279C70.5 98.7279 70.3 98.5378 70.2 98.4427C69.5 97.5871 68.8 96.7315 68 95.7808C68.4 95.6857 68.6 95.5907 68.9 95.4956C69.5 95.2104 69.8 94.735 69.6 94.1646C69.5 93.6893 68.8 93.4041 68.2 93.4991C68.1 93.4991 68 93.5942 67.8 93.5942C67.8 93.9745 67.8 94.2597 67.8 94.64C67.8 95.6857 67.8 96.7315 67.8 97.7773C67.8 98.1575 67.9 98.4427 68 98.823C67.6 98.823 67 98.823 66.5 98.823C66.6 98.4427 66.7 98.1575 66.7 97.7773C66.7 96.4463 66.7 95.1153 66.7 93.6893C67 93.4991 66.9 93.2139 66.8 92.9287Z" fill="#A76F29"/>
<path d="M31.3 81.5204C30.6 83.1366 30 84.7528 29.3 86.464C28.8 86.2739 28.6 85.8936 28.5 85.5133C28 84.3725 27.4 83.1366 26.9 81.9007C26.8 81.8056 26.8 81.6155 26.7 81.5204C26.6 82.3761 26.4 83.3267 26.3 84.1824C26.2 84.5626 26.2 84.9429 26.2 85.2281C26.2 85.6084 26.3 85.8936 26.3 86.2739C26 86.2739 25.5 86.2739 25 86.2739C25.6 85.3232 25.5 84.1824 25.7 83.1366C25.8 82.4711 25.9 81.8056 26 81.1401C26 80.8549 25.9 80.5697 25.9 80.2845C26.3 80.2845 26.8 80.2845 27.4 80.2845C28 81.7106 28.7 83.1366 29.3 84.5626C29.9 83.0415 30.5 81.6155 31.1 80.1895C31.6 80.1895 32.1 80.1895 32.4 80.1895C32.4 80.6648 32.4 81.1401 32.5 81.7106C32.6 82.8514 32.8 83.9922 33 85.1331C33.1 85.5133 33.2 85.7985 33.3 86.1788C32.8 86.1788 32.3 86.1788 31.8 86.1788C31.8 85.8936 31.9 85.6084 31.9 85.3232C31.8 84.1824 31.6 82.8514 31.3 81.5204C31.4 81.6155 31.4 81.5204 31.3 81.5204Z" fill="#A76F29"/>
<path d="M80.5 80.2844C82.6 80.2844 84.1 81.8055 83.9 83.7069C83.7 85.5133 81.8 86.7492 79.8 86.4639C77.3 86.0837 76.1 83.6119 77.5 81.7105C78.2 80.7598 79.3 80.2844 80.5 80.2844ZM78.1 83.3266C78.1 83.9921 78.3 84.5626 78.7 85.133C79.3 85.7985 80.1 86.0837 81.1 85.8935C82 85.7034 82.5 85.133 82.7 84.3724C82.8 83.9921 82.8 83.5168 82.7 83.1365C82.5 81.9957 81.4 81.045 80.3 81.1401C79 81.045 78.1 81.9957 78.1 83.3266Z" fill="#A76F29"/>
<path d="M38.6 80.4746C39.6 80.4746 40.6 80.3796 41.7 80.4746C43.3 80.6648 44.2 81.7105 44.3 83.2316C44.3 84.7528 43.3 85.8936 41.8 86.1788C40.7 86.3689 39.7 86.2739 38.7 86.3689C38.8 85.8936 38.9 85.5133 38.9 85.133C38.9 83.8021 38.9 82.5662 38.9 81.2352C38.8 81.045 38.7 80.7598 38.6 80.4746ZM39.8 81.1401C39.8 82.6612 39.8 84.0873 39.8 85.4183C39.8 85.5133 40 85.7035 40.1 85.7035C41.9 85.8936 43.6 84.9429 43 82.6612C42.8 81.9007 42.3 81.4253 41.5 81.2352C41 81.1401 40.5 81.1401 39.8 81.1401Z" fill="#A76F29"/>
<path d="M70.5 86.3689C70.6 85.9886 70.7 85.6083 70.7 85.3231C70.7 84.0872 70.7 82.7562 70.7 81.5203C70.7 81.2351 70.6 80.8548 70.5 80.5696C71.5 80.5696 72.5 80.4745 73.6 80.5696C75.2 80.7597 76.1 81.8055 76.1 83.3266C76.1 84.8477 75.2 85.9886 73.6 86.2738C73.4 86.2738 73.3 86.3689 73.1 86.3689C72.3 86.3689 71.4 86.3689 70.5 86.3689ZM71.8 81.14C71.8 82.471 71.8 83.7069 71.8 84.8477C71.8 85.7984 71.8 85.7984 72.8 85.7034C74.2 85.6083 75.1 84.7527 75.2 83.5168C75.3 82.1858 74.5 81.3302 73.2 81.14C72.7 81.0449 72.2 81.14 71.8 81.14Z" fill="#A76F29"/>
<path d="M85.4 81.1401C85.4 82.6612 85.4 84.0873 85.4 85.5133C85.4 85.7985 85.6 86.0837 85.7 86.3689C85.2 86.3689 84.7 86.3689 84.2 86.3689C84.3 85.9887 84.4 85.6084 84.4 85.133C84.4 83.8971 84.4 82.6612 84.4 81.4253C84.4 81.1401 84.3 80.7598 84.2 80.4746C85 80.4746 85.9 80.3796 86.8 80.4746C87.6 80.5697 88.1 81.045 88.2 81.6155C88.3 82.281 88 82.8514 87.3 83.2316C87.1 83.3267 87 83.4218 86.7 83.5169C87.6 84.4676 88.3 85.6084 89.5 86.2739C88.7 86.5591 88 86.369 87.5 85.7985C86.8 84.9429 86.2 84.1823 85.5 83.3267C85.9 83.2316 86.2 83.1366 86.4 83.0415C87 82.7563 87.3 82.281 87.1 81.8056C87 81.3303 86.5 81.045 85.8 81.045C85.8 81.045 85.6 81.045 85.4 81.1401Z" fill="#A76F29"/>
<path d="M66.3 98.823C65.8 98.823 65.2 98.823 64.7 98.823C64.7 98.5378 64.8 98.3476 64.7 98.0624C64.5 97.5871 64.4 96.9216 64.1 96.6364C63.7 96.3512 63.1 96.5413 62.5 96.5413C62.4 96.5413 62.2 96.5413 62.1 96.5413C61.8 96.5413 61.7 96.6364 61.6 96.8265C61.5 97.2068 61.3 97.5871 61.2 97.9673C61.1 98.1575 61.2 98.4427 61.2 98.7279C60.8 98.7279 60.3 98.7279 59.9 98.7279C60.2 98.2526 60.4 97.7772 60.7 97.3019C61.2 96.066 61.7 94.8301 62.3 93.5942C62.4 93.3089 62.5 93.0237 62.2 92.7385C62.7 92.7385 63.1 92.7385 63.5 92.7385C63.6 92.7385 63.8 92.9287 63.8 93.0237C64.4 94.4498 65 95.8758 65.7 97.3019C65.8 97.9674 66 98.4427 66.3 98.823ZM62 95.8758C62.6 95.8758 63.2 95.8758 63.8 95.8758C63.5 95.1153 63.2 94.4498 62.9 93.6892C62.6 94.5448 62.3 95.2103 62 95.8758Z" fill="#A76F29"/>
<path d="M44.9 86.369C44.5 86.369 44 86.369 43.5 86.369C43.7 85.9887 44 85.5134 44.2 85.1331C44.8 83.8972 45.3 82.6613 45.8 81.3303C45.9 81.0451 45.9 80.7599 45.9 80.4747C45.8 80.4747 45.8 80.4747 45.8 80.4747C46.2 80.4747 46.8 80.3796 47.1 80.5698C47.4 80.7599 47.5 81.2353 47.7 81.6155C48.2 82.8514 48.7 84.0873 49.3 85.3233C49.5 85.7035 49.7 85.9887 50 86.369C49.5 86.369 48.9 86.369 48.3 86.369C48.6 86.1789 48.5 85.8937 48.4 85.6085C48.2 85.1331 48.1 84.5627 47.8 84.2775C47.5 84.0873 46.8 84.1824 46.3 84.1824C45.5 84.1824 45.5 84.1824 45.2 84.8479C45.1 85.038 45 85.3233 45 85.5134C44.8 85.7986 44.9 86.0838 44.9 86.369ZM47.5 83.4219C47.2 82.6613 46.9 81.9958 46.6 81.2353C46.3 81.9958 46 82.6613 45.7 83.4219C46.3 83.4219 46.8 83.4219 47.5 83.4219Z" fill="#A76F29"/>
<path d="M95.4 86.4641C95.7 86.274 95.9 86.0838 96.2 85.9888C97.8 85.5134 98.8 84.1825 98.7 82.7564C98.7 82.0909 98.4 81.5205 97.7 81.1402C97.2 80.855 96.5 80.9501 96.1 81.3304C95.7 81.7106 95.6 82.4712 95.9 83.0416C96.2 83.517 96.7 83.8022 97.3 83.7071C97.5 83.7071 97.8 83.612 98 83.517C97.7 84.0874 97.2 84.3726 96.5 84.2775C95.7 84.1825 95.1 83.8022 94.8 83.1367C94.2 81.8057 95.3 80.2846 96.9 80.1895C98.8 80.0945 100 81.6156 99.5 83.4219C99 85.1332 97.7 85.8937 96 86.3691C95.8 86.4641 95.5 86.4641 95.3 86.4641C95.5 86.5592 95.4 86.4641 95.4 86.4641Z" fill="#A76F29"/>
<path d="M104.4 85.6084C105 85.7034 105.6 85.7985 106.2 85.7985C106.8 85.7985 107.3 85.6084 107.6 85.133C108 84.4675 107.7 83.707 106.9 83.4218C106.4 83.2316 105.8 83.2316 105.3 83.4218C105.1 83.4218 104.9 83.5168 104.7 83.6119C104.8 82.5661 104.8 81.5204 104.9 80.4746C106.1 80.4746 107.2 80.4746 108.3 80.4746C108.3 80.8549 108.3 81.1401 108.3 81.5204C107.6 81.045 106.8 81.1401 106 81.1401C105.9 81.1401 105.8 81.3302 105.7 81.4253C105.7 81.8056 105.7 82.1859 105.7 82.5661C105.9 82.5661 106 82.5661 106.2 82.4711C107.4 82.2809 108.5 82.8513 108.8 83.802C109.2 84.9429 108.5 86.0837 107.1 86.3689C106.5 86.464 105.8 86.3689 105.1 86.3689C105 86.3689 104.9 86.2739 104.8 86.1788C104.6 86.0837 104.5 85.7985 104.4 85.6084Z" fill="#A76F29"/>
<path d="M73.7 97.7772C74.2 97.9674 74.7 98.1575 75.3 98.3476C75.8 98.4427 76.3 98.3476 76.7 98.1575C77.2 97.8723 77.3 97.3019 76.8 96.9216C76.5 96.6364 76.1 96.5413 75.8 96.3512C75.4 96.161 74.9 95.9709 74.5 95.6857C74 95.4005 73.7 94.9251 73.8 94.2596C73.9 93.5941 74.3 93.3089 74.9 93.0237C75.7 92.7385 76.5 92.7385 77.3 92.9287C77.6 93.0237 77.7 93.1188 77.6 93.3089C77.6 93.4991 77.6 93.6892 77.6 93.8794C77.1 93.7843 76.5 93.5941 76 93.4991C75.8 93.4991 75.6 93.4991 75.5 93.5941C74.8 93.7843 74.7 94.4498 75.3 94.9251C75.7 95.2103 76.1 95.4005 76.5 95.5906C76.8 95.7807 77.2 95.8758 77.5 96.161C78.3 96.7314 78.4 97.5871 77.7 98.3476C76.9 99.2033 75.9 99.2033 74.8 99.1082C73.8 98.823 73.7 98.6328 73.7 97.7772Z" fill="#A76F29"/>
<path d="M57.6 96.066C57.7 96.066 57.8 95.971 57.9 95.971C58.1 95.8759 58.3 95.8759 58.5 95.6857C59 95.4005 59.3 94.8301 59.1 94.2597C59 93.7843 58.6 93.4991 57.9 93.4991C57.2 93.4991 57.2 93.4991 57.2 94.1646C57.2 95.4005 57.2 96.5414 57.2 97.7773C57.2 98.1576 57.4 98.4428 57.5 98.823C57.1 98.823 56.5 98.823 55.8 98.823C56.2 98.4428 56.2 97.9674 56.2 97.4921C56.2 96.3512 56.2 95.1153 56.2 93.9745C56.2 93.5942 56.1 93.309 56 92.9287C56.9 92.9287 57.9 92.8337 58.9 92.9287C59.8 93.0238 60.3 93.5942 60.3 94.3548C60.4 95.0203 59.9 95.7808 59.1 95.971C58.7 96.1611 58.2 96.2562 57.6 96.066Z" fill="#A76F29"/>
<path d="M34.1 86.369C34.2 85.9887 34.3 85.7035 34.3 85.3233C34.3 83.9923 34.3 82.7564 34.3 81.4254C34.3 81.0451 34.2 80.7599 34.1 80.3796C35.1 80.3796 36.3 80.3796 37.4 80.3796C37.4 80.6648 37.4 81.0451 37.4 81.3303C36.7 80.855 36 80.9501 35.3 81.0451C35.3 81.6155 35.3 82.0909 35.3 82.6613C35.8 82.6613 36.3 82.6613 36.8 82.6613C36.8 82.9465 36.8 83.2317 36.8 83.4219C36.3 83.4219 35.8 83.3268 35.3 83.3268C35.3 84.0874 35.3 84.7528 35.3 85.4183C36.3 85.5134 37.3 85.7035 38.3 84.943C38.1 85.4183 38 85.7035 37.9 86.0838C37.9 86.1789 37.7 86.274 37.6 86.274C36.5 86.369 35.2 86.369 34.1 86.369Z" fill="#A76F29"/>
<path d="M62 80.4746C63 80.4746 64.1 80.4746 65.3 80.4746C65.3 80.7598 65.3 81.1401 65.3 81.4253C64.8 81.045 64.2 81.045 63.6 81.1401C63.3 81.1401 63.2 81.2352 63.2 81.5204C63.2 81.9007 63.2 82.376 63.2 82.7563C63.7 82.7563 64.2 82.7563 64.7 82.7563C64.7 83.0415 64.7 83.3267 64.7 83.5168C64.2 83.5168 63.7 83.4218 63.2 83.4218C63.2 84.1823 63.2 84.8478 63.2 85.5133C64.2 85.6084 65.2 85.7985 66.2 85.0379C66 85.5133 65.9 85.7985 65.8 86.1788C65.8 86.2738 65.6 86.2738 65.5 86.2738C64.3 86.2738 63.1 86.2738 62 86.2738C62.1 85.8936 62.2 85.5133 62.2 85.133C62.2 83.8971 62.2 82.6612 62.2 81.4253C62.2 81.2352 62.1 80.8549 62 80.4746Z" fill="#A76F29"/>
<path d="M101.1 85.6084C102.7 85.7985 103 85.7985 104.3 85.3232C104.1 85.7034 104 85.9886 103.8 86.2738C103.8 86.3689 103.6 86.464 103.5 86.464C102.1 86.464 100.8 86.464 99.3 86.464C99.4 86.2738 99.5 86.1788 99.6 86.0837C100.4 85.0379 101.2 83.8971 102 82.8513C102.3 82.4711 102.6 81.9957 102.2 81.5204C101.9 81.1401 101.4 81.045 100.7 81.2352C100.4 81.3302 100 81.5204 99.7 81.6154C99.8 80.8549 100.1 80.4746 100.9 80.4746C101.4 80.4746 102 80.4746 102.4 80.6648C103.3 80.95 103.6 81.7105 103.2 82.5661C102.8 83.3267 102.2 83.9922 101.7 84.7527C101.6 84.9429 101.4 85.2281 101.1 85.6084Z" fill="#A76F29"/>
<path d="M114.4 39.2145C114.4 40.8307 113.1 42.0666 111.3 41.9715C109.6 41.9715 108.4 40.7356 108.4 39.1194C108.4 37.5032 109.8 36.2673 111.5 36.2673C113.1 36.3624 114.4 37.6934 114.4 39.2145ZM111.4 41.4962C112.8 41.4962 113.8 40.4504 113.8 39.1194C113.8 37.8835 112.7 36.8377 111.4 36.8377C110 36.8377 109 37.8835 109 39.1194C109 40.4504 110.1 41.4962 111.4 41.4962Z" fill="#A76F29"/>
<path d="M54.2 85.6084C55.7 85.7985 56 85.7985 57.2 85.2281C57 85.6084 56.9 85.9886 56.8 86.2739C56.8 86.3689 56.6 86.3689 56.5 86.3689C55.3 86.3689 54.2 86.3689 52.9 86.3689C53.3 85.8936 53.2 85.4182 53.2 84.9429C53.2 83.802 53.2 82.6612 53.2 81.5204C53.2 81.1401 53.1 80.8549 53 80.4746C53.4 80.4746 54 80.4746 54.4 80.4746C54.3 80.8549 54.2 81.1401 54.2 81.5204C54.2 82.8514 54.2 84.1823 54.2 85.6084Z" fill="#A76F29"/>
<path d="M58.8 85.6084C59.9 85.7034 60.9 85.8936 61.8 85.2281C61.7 85.5133 61.5 85.8936 61.4 86.1788C61.4 86.2738 61.2 86.3689 61.1 86.3689C59.9 86.3689 58.7 86.3689 57.5 86.3689C57.9 85.8936 57.9 85.4182 57.8 84.9429C57.8 83.802 57.8 82.6612 57.8 81.5204C57.8 81.1401 57.7 80.8549 57.6 80.4746C58 80.4746 58.6 80.4746 59 80.4746C58.9 80.8549 58.8 81.2352 58.8 81.7105C58.8 82.9464 58.8 84.2774 58.8 85.6084Z" fill="#A76F29"/>
<path d="M93.3 86.369C93.4 86.0838 93.6 85.7035 93.6 85.4183C93.6 84.1824 93.6 82.9465 93.6 81.6155C93.3 81.6155 93 81.6155 92.7 81.6155C93.3 81.1401 93.9 80.6648 94.5 80.1895C94.5 80.1895 94.5 80.2845 94.5 80.4747C94.5 82.0908 94.5 83.707 94.5 85.3232C94.5 85.7035 94.7 86.0838 94.8 86.464C94.4 86.369 93.8 86.369 93.3 86.369Z" fill="#A76F29"/>
<path d="M50.6 86.3691C50.7 85.9888 50.8 85.7036 50.8 85.3233C50.8 84.0874 50.8 82.7564 50.8 81.5205C50.8 81.2353 50.7 80.855 50.6 80.5698C51 80.5698 51.6 80.5698 52 80.5698C51.9 80.9501 51.8 81.3304 51.8 81.7107C51.8 82.9466 51.8 84.1825 51.8 85.4184C51.8 85.7036 51.9 86.0839 52 86.3691C51.6 86.3691 51.1 86.3691 50.6 86.3691Z" fill="#A76F29"/>
<path d="M76.3 81.9958C76.5 81.8056 76.5 81.7106 76.6 81.6155C76.7 81.5204 76.7 81.4254 76.8 81.2352C76.7 81.2352 76.7 81.1401 76.6 81.1401C76.3 81.0451 76.1 80.8549 76.2 80.5697C76.3 80.3796 76.5 80.1895 76.7 80.1895C76.9 80.1895 77.2 80.3796 77.3 80.5697C77.5 80.95 77 81.9007 76.6 82.0908C76.6 82.0908 76.4 81.9958 76.3 81.9958Z" fill="#A76F29"/>
<path d="M67.1 13.0704C67.5 12.5951 67.5 12.1197 67.1 11.5493C67.7 11.5493 68.2 11.5493 68.7 11.5493C68.8 11.5493 68.9 11.8345 69.1 11.9296C68.7 12.1197 68.3 11.4542 68 12.0247C68.2 11.9296 68.3 11.9296 68.5 11.9296C68.5 12.1197 68.5 12.3099 68.5 12.5951C68.4 12.5 68.2 12.5 68.1 12.4049V12.5C68.1 12.5951 68.2 12.8803 68.2 12.8803C68.4 12.8803 68.6 12.8803 68.7 12.7852C68.8 12.6902 68.9 12.5 69 12.4049C69.1 12.9754 69 13.1655 68.5 13.1655C68.1 13.1655 67.6 13.1655 67.2 13.1655C67.1 13.1655 67.1 13.0704 67.1 13.0704Z" fill="#A76F29"/>
<path d="M64.9 13.0704C64.6 13.0704 64.3 13.0704 63.9 13.0704C63.9 12.9753 63.9 12.8802 64 12.7852C63.5 12.595 63.4 12.595 63.5 13.0704C63.3 13.0704 63.1 13.0704 62.8 13.0704C63 12.595 63.5 12.2148 63.2 11.5493C63.8 11.3591 64 11.3591 64.3 11.9295C64.5 12.4049 64.7 12.6901 64.9 13.0704Z" fill="#A76F29"/>
<path d="M71.4 12.3099C71.3 13.1655 71.2 13.2606 70.5 13.1655C70.2 13.1655 69.9 13.1655 69.5 13.0704C69.5 13.0704 69.5 13.0704 69.5 12.9754C69.9 12.5951 70 12.1197 69.5 11.5493C69.9 11.5493 70.3 11.5493 70.6 11.5493C70.5 11.8345 70.4 12.1197 70.4 12.5C70.4 12.5951 70.5 12.7852 70.6 12.8803C70.7 12.8803 70.9 12.8803 71 12.7852C71.1 12.5951 71.2 12.5 71.4 12.3099Z" fill="#A76F29"/>
<path d="M66.2 11.5493C66.4 11.5493 66.6 11.5493 66.8 11.5493C66.6 12.0247 66.3 12.4049 66.1 12.8803C66 12.9754 65.9 13.0704 65.8 13.0704C65.7 13.0704 65.6 12.9754 65.5 12.8803C65.2 12.5 65 12.0247 64.7 11.5493C64.9 11.5493 65.2 11.5493 65.5 11.5493C65.6 11.8345 65.6 12.1197 65.7 12.3099C65.8 12.3099 65.8 12.3099 65.9 12.3099C66.1 12.1197 66.1 11.8345 66.2 11.5493Z" fill="#A76F29"/>
<path d="M111 40.7355C110.7 40.7355 110.4 40.7355 110.2 40.7355C110.2 39.6898 110.2 38.644 110.2 37.5032C110.9 37.5032 111.5 37.5032 112.1 37.5982C112.5 37.5982 112.8 37.8835 112.8 38.3588C112.9 38.8341 112.7 39.0243 112.3 39.2144C112.5 39.4046 112.7 39.5947 112.7 39.8799C112.8 40.1651 112.7 40.3553 112.8 40.7355C112.6 40.7355 112.5 40.7355 112.3 40.7355C112 40.7355 111.9 40.6405 111.9 40.3553C111.9 39.6898 111.7 39.5947 111 39.6898C111 40.0701 111 40.3553 111 40.7355ZM111 39.2144C111.4 39.1194 111.6 39.0243 111.9 38.8341C112 38.8341 112 38.4539 111.9 38.3588C111.7 38.2637 111.4 38.1687 111.1 38.0736C111 38.4539 111 38.7391 111 39.2144Z" fill="#A76F29"/>
</svg>
