<svg width="36" height="8" viewBox="0 0 36 8" fill="none" xmlns="http://www.w3.org/2000/svg">
<path d="M1.31375 1.98242C1.97912 1.31706 2.7812 0.984375 3.72 0.984375C4.6588 0.984375 5.45633 1.31706 6.11258 1.98242C6.77794 2.63867 7.11063 3.4362 7.11063 4.375C7.11063 5.3138 6.77794 6.11589 6.11258 6.78125C5.45633 7.4375 4.6588 7.76562 3.72 7.76562C2.7812 7.76562 1.97912 7.4375 1.31375 6.78125C0.657501 6.11589 0.329376 5.3138 0.329376 4.375C0.329376 3.4362 0.657501 2.63867 1.31375 1.98242ZM15.5938 1.98242C16.2591 1.31706 17.0612 0.984375 18 0.984375C18.9388 0.984375 19.7363 1.31706 20.3926 1.98242C21.0579 2.63867 21.3906 3.4362 21.3906 4.375C21.3906 5.3138 21.0579 6.11589 20.3926 6.78125C19.7363 7.4375 18.9388 7.76562 18 7.76562C17.0612 7.76562 16.2591 7.4375 15.5938 6.78125C14.9375 6.11589 14.6094 5.3138 14.6094 4.375C14.6094 3.4362 14.9375 2.63867 15.5938 1.98242ZM29.8737 1.98242C30.5391 1.31706 31.3412 0.984375 32.28 0.984375C33.2188 0.984375 34.0163 1.31706 34.6726 1.98242C35.3379 2.63867 35.6706 3.4362 35.6706 4.375C35.6706 5.3138 35.3379 6.11589 34.6726 6.78125C34.0163 7.4375 33.2188 7.76562 32.28 7.76562C31.3412 7.76562 30.5391 7.4375 29.8737 6.78125C29.2175 6.11589 28.8894 5.3138 28.8894 4.375C28.8894 3.4362 29.2175 2.63867 29.8737 1.98242Z" fill="#262626"/>
</svg>
