<svg width="84" height="62" viewBox="0 0 84 62" fill="none" xmlns="http://www.w3.org/2000/svg">
<path d="M19.1 0.0999756H0V2.49998H19.1V0.0999756Z" fill="#AA6C09"/>
<path d="M84 0.0999756H64.9V2.49998H84V0.0999756Z" fill="#AA6C09"/>
<path d="M20.7 42.7L4.8 1.29999L2.7 2.19999L18.9 44.4L19.5 45.9C19.6 45.5 20.6 43.2 20.7 42.7Z" fill="#AA6C09"/>
<path d="M24.7 27.8L14.9 2.19999L16.4 1.49999L17 1.29999L26.8 26.9L24.7 27.8Z" fill="#AA6C09"/>
<path d="M20.3 43.8L26.8 26.9L24.7 26L18.3 42.8L20.3 43.8Z" fill="#AA6C09"/>
<path d="M21.3 28.7L10.3 0.0999756L8.3 0.999975L19.5 30.4L20.1 31.9C20.2 31.5 21.2 29.1 21.3 28.7Z" fill="#AA6C09"/>
<path d="M42.2 0.0999756H23.1V2.49998H42.2V0.0999756Z" fill="#AA6C09"/>
<path d="M43.3 42.7L27.3 1.29999L25.2 2.19999L41.4 44.4L42 45.9C42.2 45.5 43.1 43.2 43.3 42.7Z" fill="#AA6C09"/>
<path d="M47.3 27.8L37.5 2.19999L39 1.49999L39.5 1.29999L49.3 26.9L47.3 27.8Z" fill="#AA6C09"/>
<path d="M42.9 43.8L49.3 26.9L47.3 26L40.8 42.8L42.9 43.8Z" fill="#AA6C09"/>
<path d="M43.9 28.7L32.9 0.0999756L30.8 0.999975L42 30.4L42.6 31.9C42.8 31.5 43.7 29.1 43.9 28.7Z" fill="#AA6C09"/>
<path d="M45.3219 61.9996L62.1219 61.9996L62.1219 59.5996L45.3219 59.5996L45.3219 61.9996Z" fill="#AA6C09"/>
<path d="M46.7 51.9L49.9 60.3L48.4 61L47.9 61.3L44.7 52.8L46.7 51.9Z" fill="#AA6C09"/>
<path d="M51.1 35.9L44.7 52.8L46.7 53.7L53.2 36.9L51.1 35.9Z" fill="#AA6C09"/>
<path d="M49.4 42.6C49 43.6 48.5 44.6 48.1 45.5L54.4 62L56.5 61.1L49.4 42.6Z" fill="#AA6C09"/>
<path d="M57.9 61.1L80.6 1.69999L78.6 0.799988L55.8 60.2L57.9 61.1Z" fill="#AA6C09"/>
<path d="M50.7 37L58.1 56.2L60.2 55.3L52.6 35.4L52 33.8C51.8 34.2 50.9 36.5 50.7 37Z" fill="#AA6C09"/>
<path d="M56.2 46.3L73.9 0.0999756L76 0.999975L58 47.9L57.4 49.4C57.3 49.1 56.4 46.7 56.2 46.3Z" fill="#AA6C09"/>
<path d="M54.3 56.1L56.8 49.6L55.3 47.3L52.2 55.2L54.3 56.1Z" fill="#AA6C09"/>
<path d="M22.4046 61.9996L39.2046 61.9996L39.2046 59.5996L22.4046 59.5996L22.4046 61.9996Z" fill="#AA6C09"/>
<path d="M24.2 51.9L27.4 60.3L25.9 61L25.3 61.3L22.1 52.8L24.2 51.9Z" fill="#AA6C09"/>
<path d="M28.6 35.9L22.1 52.8L24.2 53.7L30.6 36.9L28.6 35.9Z" fill="#AA6C09"/>
<path d="M26.8 42.6C26.4 43.6 25.9 44.6 25.5 45.5L31.8 62L33.9 61.1L26.8 42.6Z" fill="#AA6C09"/>
<path d="M35.4 61.1L37.6 55.2L35.6 54.3L33.3 60.2L35.4 61.1Z" fill="#AA6C09"/>
<path d="M28.2 37L35.6 56.2L37.7 55.3L30 35.3L29.4 33.8C29.3 34.2 28.3 36.5 28.2 37Z" fill="#AA6C09"/>
<path d="M31.8 56.1L34.3 49.6L32.7 47.3L29.7 55.2L31.8 56.1Z" fill="#AA6C09"/>
<path d="M58.7 26.9L69 0.0999756L71.1 0.999975L60.5 28.6L59.9 30.1C59.8 29.7 58.9 27.3 58.7 26.9Z" fill="#AA6C09"/>
</svg>
